<?xml version="1.0" encoding="UTF-8" standalone="no"?>
<svg
   xmlns:dc="http://purl.org/dc/elements/1.1/"
   xmlns:cc="http://creativecommons.org/ns#"
   xmlns:rdf="http://www.w3.org/1999/02/22-rdf-syntax-ns#"
   xmlns:svg="http://www.w3.org/2000/svg"
   xmlns="http://www.w3.org/2000/svg"
   version="1.1"
   id="svg893"
   width="1365.3333"
   height="1365.3333"
   viewBox="0 0 1365.3333 1365.3333">
  <metadata
     id="metadata899">
    <rdf:RDF>
      <cc:Work
         rdf:about="">
        <dc:format>image/svg+xml</dc:format>
        <dc:type
           rdf:resource="http://purl.org/dc/dcmitype/StillImage" />
        <dc:title></dc:title>
      </cc:Work>
    </rdf:RDF>
  </metadata>
  <defs
     id="defs897" />
  <path
     style="fill:#000000;stroke-width:1.33333325"
     d="m 560.66665,1104.5613 c -115.86666,-16.3912 -210.81666,-29.823 -210.99999,-29.8484 -0.74131,-0.1028 -0.26987,-615.25863 0.55189,-720.1334 l 0.88349,-112.75381 45.36687,-15.1003 45.36688,-15.10028 24.74876,3.47639 c 13.61182,1.91201 108.74877,15.21763 211.41543,29.56804 102.66667,14.3504 188.01667,26.38181 189.66667,26.73645 l 3,0.6448 v 82.56259 c 0,50.43309 0.49061,82.86578 1.26072,83.34173 0.69338,0.42855 32.8505,5.22107 71.46025,10.65005 38.60974,5.42899 70.45898,10.13038 70.77618,10.44752 0.3171,0.31715 0.1637,37.75181 -0.341,83.18817 l -0.9176,82.61155 -45.72261,15.19768 -45.72264,15.19769 -24.39665,-3.44644 c -13.41816,-1.89553 -24.84665,-3.19088 -25.39665,-2.87853 -0.55,0.31234 -1,27.85132 -1,61.19772 0,47.27614 0.36708,60.76974 1.66666,61.26513 0.91667,0.34941 32.86667,5.02112 71,10.38157 l 69.33329,9.74627 0.3433,83.25465 0.3432,83.25464 -45.67655,15.205 -45.67657,15.205 -22.66667,-3.13066 c -12.46666,-1.72185 -23.86666,-3.16924 -25.33333,-3.2164 -2.61984,-0.0843 -2.67837,0.98926 -3.33333,61.13378 l -0.66667,61.2196 -44.55224,15.1138 c -27.17771,9.2196 -46.41679,15.0546 -49.33333,14.9622 -2.6296,-0.083 -99.58109,-13.5626 -215.44776,-29.9538 z"
     id="path909" />
  <path
     style="fill:#30bfef;stroke-width:1.33333325;fill-opacity:1"
     d="m 778.66665,885.35871 v -82.64126 l -3,-0.67174 c -4.32092,-0.96749 -278.92112,-39.37906 -281.51676,-39.37906 -1.98498,0 -2.1408,7.07221 -1.82666,82.90921 l 0.34342,82.9092 138.66667,19.62161 c 76.26666,10.79189 140.61666,19.68275 142.99999,19.75747 l 4.33334,0.13584 z"
     id="path907" />
  <path
     style="fill:#30bfef;stroke-width:1.33333325;fill-opacity:1"
     d="m 778.08805,469.64362 c -0.56263,-0.56264 -280.82174,-40.26856 -284.43149,-40.29706 -1.33263,-0.0107 -1.60628,17.02107 -1.33333,82.98425 l 0.34342,82.9975 142.66667,20.03938 142.66666,20.03939 0.34351,-82.58227 c 0.18892,-45.42024 0.074,-82.85178 -0.25544,-83.18119 z"
     id="path903" />
</svg>
